P3
2 2
255
98 20 42 0 175 125 
230 230 0 103 103 100 
