P3
5 5
255
98 20 42 0 175 125 230 0 0 0 230 230 125 50 0 
230 230 0 103 103 103 0 230 0 230 0 230 39 39 230 
0 0 230 75 175 25 155 75 125 50 25 230 175 75 0 
230 75 75 0 230 75 0 75 230 175 175 0 125 0 230 
25 25 25 230 230 230 103 0 103 0 230 0 230 103 39 
