P3
10 10
255
0 0 0 0 0 0 0 0 0 0 0 0 0 0 0 0 0 0 0 0 0 0 0 0 0 0 0 0 0 0 
0 0 0 69 32 32 108 63 50 118 90 58 110 110 58 90 121 58 64 124 58 36 111 51 15 70 33 0 0 0 
0 0 0 108 50 63 171 100 100 187 144 113 173 176 114 142 194 114 99 198 113 57 177 102 23 111 65 0 0 0 
0 0 0 118 58 90 187 113 144 204 163 163 188 198 165 154 219 165 106 223 164 60 197 146 24 123 92 0 0 0 
0 0 0 110 58 110 173 114 176 188 165 198 171 201 201 136 221 201 90 221 198 48 193 176 18 118 111 0 0 0 
0 0 0 90 58 121 142 114 194 154 165 219 136 200 222 104 216 221 64 211 216 32 176 191 10 106 119 0 0 0 
0 0 0 64 58 122 99 113 197 106 163 221 90 196 223 64 208 221 34 193 215 14 153 188 3 88 117 0 0 0 
0 0 0 36 50 109 57 100 174 60 144 194 48 172 196 32 179 191 14 160 186 4 121 162 0 66 100 0 0 0 
0 0 0 15 32 67 23 63 107 24 90 120 18 107 119 10 110 117 3 96 112 0 70 97 0 37 60 0 0 0 
0 0 0 0 0 0 0 0 0 0 0 0 0 0 0 0 0 0 0 0 0 0 0 0 0 0 0 0 0 0 
