P3
10 10
255
215 0 0 215 24 0 215 88 0 215 152 0 215 215 0 152 215 0 88 215 0 24 215 0 0 215 0 0 215 24 
215 0 24 215 24 24 215 88 24 215 152 24 215 215 24 152 215 24 88 215 24 24 215 24 0 215 24 0 215 88 
215 0 88 215 24 88 215 88 88 215 152 88 215 215 88 152 215 88 88 215 88 24 215 88 0 215 88 0 215 152 
215 0 152 215 24 152 215 88 152 215 152 152 215 215 152 152 215 152 88 215 152 24 215 152 0 215 152 0 215 215 
215 0 215 215 24 215 215 88 215 215 152 215 215 215 215 152 215 215 88 215 215 24 215 215 0 215 215 0 152 215 
152 0 215 152 24 215 152 88 215 152 152 215 152 215 215 88 215 215 24 215 215 0 215 215 0 152 215 0 88 215 
88 0 215 88 24 215 88 88 215 88 152 215 88 215 215 24 215 215 0 215 215 0 152 215 0 88 215 0 24 215 
24 0 215 24 24 215 24 88 215 24 152 215 24 215 215 0 215 215 0 152 215 0 88 215 0 24 215 0 0 215 
0 0 215 0 24 215 0 88 215 0 152 215 0 215 215 0 215 152 0 152 152 0 88 152 0 24 152 0 0 152 
0 0 152 0 24 152 0 88 152 0 152 152 0 215 152 0 215 88 0 152 88 0 88 88 0 24 88 0 0 88 
