P3
2 2
255
83 5 27 0 160 110 
215 215 0 88 88 85 
