P3
2 2
255
122 45 66 12 198 149 
253 253 0 127 126 123 
