P3
10 10
255
0 0 0 0 0 0 0 0 0 0 0 0 0 0 0 0 0 0 0 0 0 0 0 0 0 0 0 0 0 0 
0 0 0 247 64 64 247 128 64 247 189 64 234 234 64 189 247 64 128 247 64 64 247 64 16 247 80 0 0 0 
0 0 0 247 64 128 247 128 128 247 189 128 234 234 128 189 247 128 128 247 128 64 247 128 16 247 143 0 0 0 
0 0 0 247 64 189 247 128 189 247 189 189 234 234 189 189 247 189 128 247 189 64 247 189 16 244 200 0 0 0 
0 0 0 234 64 234 234 128 234 234 189 234 220 234 234 174 247 234 112 247 234 52 244 234 12 226 237 0 0 0 
0 0 0 189 64 247 189 128 247 189 189 247 174 234 247 127 247 247 68 244 247 24 226 247 4 185 247 0 0 0 
0 0 0 128 64 247 128 128 247 128 189 247 112 234 247 68 244 247 24 226 247 4 185 247 0 127 247 0 0 0 
0 0 0 64 64 247 64 128 247 64 189 247 52 234 244 24 237 237 4 200 234 0 143 234 0 80 234 0 0 0 
0 0 0 16 64 234 16 128 234 16 189 234 12 234 223 4 234 200 0 189 189 0 128 189 0 64 189 0 0 0 
0 0 0 0 0 0 0 0 0 0 0 0 0 0 0 0 0 0 0 0 0 0 0 0 0 0 0 0 0 0 
