P3
10 10
255
255 25 25 255 89 25 255 153 25 255 217 25 255 255 25 217 255 25 153 255 25 89 255 25 25 255 25 25 255 89 
255 25 89 255 89 89 255 153 89 255 217 89 255 255 89 217 255 89 153 255 89 89 255 89 25 255 89 25 255 153 
255 25 153 255 89 153 255 153 153 255 217 153 255 255 153 217 255 153 153 255 153 89 255 153 25 255 153 25 255 217 
255 25 217 255 89 217 255 153 217 255 217 217 255 255 217 217 255 217 153 255 217 89 255 217 25 255 217 25 255 255 
255 25 255 255 89 255 255 153 255 255 217 255 255 255 255 217 255 255 153 255 255 89 255 255 25 255 255 25 217 255 
217 25 255 217 89 255 217 153 255 217 217 255 217 255 255 153 255 255 89 255 255 25 255 255 25 217 255 25 153 255 
153 25 255 153 89 255 153 153 255 153 217 255 153 255 255 89 255 255 25 255 255 25 217 255 25 153 255 25 89 255 
89 25 255 89 89 255 89 153 255 89 217 255 89 255 255 25 255 255 25 217 255 25 153 255 25 89 255 25 25 255 
25 25 255 25 89 255 25 153 255 25 217 255 25 255 255 25 255 217 25 217 217 25 153 217 25 89 217 25 25 217 
25 25 217 25 89 217 25 153 217 25 217 217 25 255 217 25 255 153 25 217 153 25 153 153 25 89 153 25 25 153 
