P3
10 10
255
0 0 0 0 0 0 0 0 0 0 0 0 0 0 0 0 0 0 0 0 0 0 0 0 0 0 0 0 0 0 
0 0 0 255 255 255 136 255 255 22 255 255 0 255 255 0 255 255 0 67 88 0 0 0 0 0 0 0 0 0 
0 0 0 136 255 255 0 255 255 0 255 255 0 220 255 0 0 255 0 0 0 0 0 0 0 0 0 0 0 0 
0 0 0 22 255 255 0 255 255 0 220 255 0 0 255 0 0 255 0 0 6 0 0 0 0 0 0 0 0 0 
0 0 0 0 255 255 0 255 255 0 119 255 0 0 255 0 0 255 0 0 3 0 0 0 0 0 0 0 0 0 
0 0 0 0 255 255 0 255 126 0 124 122 0 0 165 0 0 168 0 0 0 0 0 0 0 0 0 0 0 0 
0 0 0 0 93 67 0 0 0 0 0 0 0 0 0 0 0 0 0 0 0 0 0 0 0 0 0 0 0 0 
0 0 0 0 0 0 0 0 0 0 0 0 0 0 0 0 0 0 0 0 0 0 0 0 0 0 0 0 0 0 
0 0 0 0 0 0 0 0 0 0 0 0 0 0 0 0 0 0 0 0 0 0 0 0 0 0 0 0 0 0 
0 0 0 0 0 0 0 0 0 0 0 0 0 0 0 0 0 0 0 0 0 0 0 0 0 0 0 0 0 0 
