P3
2 2
255
126 45 56 8 198 159 
249 253 10 131 126 113 
