P3
5 5
255
123 123 123 200 200 200 255 255 255 255 255 255 150 150 150 
255 255 255 128 128 128 255 255 255 255 255 255 255 255 255 
255 255 255 200 200 200 180 180 180 255 255 255 200 200 200 
255 255 255 255 255 255 255 255 255 200 200 200 255 255 255 
50 50 50 255 255 255 128 128 128 255 255 255 255 255 255 
