P3
2 2
255
0 0 0 12 200 150 
0 0 0 128 128 125 
