P3
2 2
255
78 78 78 12 200 150 
170 170 170 128 128 125 
