P3
5 5
255
0 0 0 0 0 0 0 0 0 0 0 0 0 0 0 
0 0 0 159 184 137 123 41 255 226 45 140 0 0 0 
0 0 0 0 148 255 204 159 98 207 24 207 0 0 0 
0 0 0 120 96 206 8 225 0 255 199 31 0 0 0 
0 0 0 0 0 0 0 0 0 0 0 0 0 0 0 
