P3
2 2
255
122 30 56 0 210 153 
255 255 0 128 128 124 
