P3
5 5
255
0 0 0 0 0 0 255 0 0 0 255 255 150 75 0 
0 0 0 109 152 84 0 255 0 255 0 255 64 64 255 
0 0 0 93 151 110 180 100 150 75 50 255 200 100 0 
0 0 0 96 152 140 0 100 255 200 200 0 150 0 255 
0 0 0 0 0 0 128 0 128 0 255 0 255 128 64 
