P3
10 10
255
54 54 54 99 99 99 145 145 145 191 191 191 236 236 236 223 223 223 209 209 209 195 195 195 182 182 182 186 186 186 
58 58 58 104 104 104 150 150 150 196 196 196 241 241 241 227 227 227 214 214 214 200 200 200 186 186 186 191 191 191 
63 63 63 109 109 109 155 155 155 200 200 200 245 245 245 232 232 232 218 218 218 205 205 205 191 191 191 196 196 196 
68 68 68 113 113 113 159 159 159 205 205 205 250 250 250 237 237 237 223 223 223 209 209 209 196 196 196 200 200 200 
72 72 72 118 118 118 164 164 164 209 209 209 254 254 254 241 241 241 227 227 227 214 214 214 200 200 200 155 155 155 
59 59 59 105 105 105 150 150 150 196 196 196 241 241 241 227 227 227 214 214 214 200 200 200 155 155 155 109 109 109 
45 45 45 91 91 91 137 137 137 182 182 182 227 227 227 214 214 214 200 200 200 155 155 155 109 109 109 64 64 64 
32 32 32 77 77 77 123 123 123 169 169 169 214 214 214 200 200 200 155 155 155 109 109 109 64 64 64 18 18 18 
18 18 18 64 64 64 109 109 109 155 155 155 200 200 200 196 196 196 151 151 151 105 105 105 59 59 59 13 13 13 
13 13 13 59 59 59 105 105 105 151 151 151 196 196 196 191 191 191 146 146 146 100 100 100 55 55 55 9 9 9 
