P3
5 5
255
78 78 78 120 120 120 85 85 85 170 170 170 75 75 75 
170 170 170 128 128 128 85 85 85 170 170 170 127 127 127 
85 85 85 116 116 116 143 143 143 126 126 126 100 100 100 
151 151 151 118 118 118 118 118 118 133 133 133 135 135 135 
50 50 50 255 255 255 85 85 85 85 85 85 149 149 149 
