P3
2 2
255
55 60 65 105 110 115 
155 160 165 205 210 215 
