P3
5 5
255
63 63 63 156 156 156 54 54 54 200 200 200 85 85 85 
236 236 236 128 128 128 182 182 182 72 72 72 77 77 77 
18 18 18 167 167 167 120 120 120 70 70 70 114 114 114 
132 132 132 189 189 189 89 89 89 185 185 185 50 50 50 
50 50 50 254 254 254 36 36 36 182 182 182 150 150 150 
