P3
2 2
255
123 123 123 12 12 12 
255 255 255 128 128 128 
