P3
2 2
255
95 85 66 12 200 150 
255 255 205 128 128 125 
