P3
10 10
255
230 0 0 230 39 0 230 103 0 230 167 0 230 230 0 167 230 0 103 230 0 39 230 0 0 230 0 0 230 39 
230 0 39 230 39 39 230 103 39 230 167 39 230 230 39 167 230 39 103 230 39 39 230 39 0 230 39 0 230 103 
230 0 103 230 39 103 230 103 103 230 167 103 230 230 103 167 230 103 103 230 103 39 230 103 0 230 103 0 230 167 
230 0 167 230 39 167 230 103 167 230 167 167 230 230 167 167 230 167 103 230 167 39 230 167 0 230 167 0 230 230 
230 0 230 230 39 230 230 103 230 230 167 230 230 230 230 167 230 230 103 230 230 39 230 230 0 230 230 0 167 230 
167 0 230 167 39 230 167 103 230 167 167 230 167 230 230 103 230 230 39 230 230 0 230 230 0 167 230 0 103 230 
103 0 230 103 39 230 103 103 230 103 167 230 103 230 230 39 230 230 0 230 230 0 167 230 0 103 230 0 39 230 
39 0 230 39 39 230 39 103 230 39 167 230 39 230 230 0 230 230 0 167 230 0 103 230 0 39 230 0 0 230 
0 0 230 0 39 230 0 103 230 0 167 230 0 230 230 0 230 167 0 167 167 0 103 167 0 39 167 0 0 167 
0 0 167 0 39 167 0 103 167 0 167 167 0 230 167 0 230 103 0 167 103 0 103 103 0 39 103 0 0 103 
