P3
2 2
255
53 69 85 128 141 153 
186 196 205 228 235 240 
