P3
10 10
255
255 1 0 255 65 0 255 129 0 255 193 0 255 255 0 199 255 0 135 255 0 71 255 0 7 255 0 7 255 55 
255 1 55 255 65 55 255 129 55 255 193 55 255 255 55 199 255 55 135 255 55 71 255 55 7 255 55 7 255 119 
255 1 119 255 65 119 255 129 119 255 193 119 255 255 119 199 255 119 135 255 119 71 255 119 7 255 119 7 255 183 
255 1 183 255 65 183 255 129 183 255 193 183 255 255 183 199 255 183 135 255 183 71 255 183 7 255 183 7 255 246 
255 1 246 255 65 246 255 129 246 255 193 246 255 255 246 199 255 246 135 255 246 71 255 246 7 255 246 7 193 246 
199 1 246 199 65 246 199 129 246 199 193 246 199 255 246 135 255 246 71 255 246 7 255 246 7 193 246 7 129 246 
135 1 246 135 65 246 135 129 246 135 193 246 135 255 246 71 255 246 7 255 246 7 193 246 7 129 246 7 65 246 
71 1 246 71 65 246 71 129 246 71 193 246 71 255 246 7 255 246 7 193 246 7 129 246 7 65 246 7 1 246 
7 1 246 7 65 246 7 129 246 7 193 246 7 255 246 7 255 183 7 193 183 7 129 183 7 65 183 7 1 183 
7 1 183 7 65 183 7 129 183 7 193 183 7 255 183 7 255 119 7 193 119 7 129 119 7 65 119 7 1 119 
