P3
5 5
255
95 85 66 186 166 129 100 88 69 244 217 169 116 103 80 
255 255 205 172 153 119 196 174 136 148 131 102 122 109 84 
48 42 33 202 180 140 175 156 122 116 103 80 155 138 107 
196 174 135 214 191 149 125 111 86 232 207 161 107 95 74 
67 60 46 255 255 238 74 66 51 196 174 136 210 187 146 
