P3
10 10
255
0 0 0 0 0 0 0 0 0 0 0 0 0 0 0 0 0 0 0 0 0 0 0 0 0 0 0 0 0 0 
0 0 0 255 168 168 255 240 168 255 255 168 218 255 168 123 255 168 48 255 168 0 255 168 0 255 240 0 0 0 
0 0 0 255 168 240 255 240 240 255 255 240 218 255 240 123 255 240 48 255 240 0 255 240 0 255 255 0 0 0 
0 0 0 255 168 255 255 240 255 255 255 255 218 255 255 123 255 255 48 255 255 0 255 255 0 226 255 0 0 0 
0 0 0 218 168 255 218 240 255 218 255 255 146 255 255 50 255 255 0 255 255 0 226 255 0 132 255 0 0 0 
0 0 0 123 168 255 123 240 255 123 255 255 50 255 255 0 255 255 0 226 255 0 132 255 0 35 255 0 0 0 
0 0 0 48 168 255 48 240 255 48 255 255 0 255 255 0 226 255 0 132 255 0 35 255 0 0 255 0 0 0 
0 0 0 0 168 255 0 240 255 0 255 255 0 255 226 0 211 211 0 108 218 0 25 218 0 0 218 0 0 0 
0 0 0 0 168 218 0 240 218 0 255 218 0 255 139 0 218 108 0 123 123 0 48 123 0 0 123 0 0 0 
0 0 0 0 0 0 0 0 0 0 0 0 0 0 0 0 0 0 0 0 0 0 0 0 0 0 0 0 0 0 
