P3
2 2
255
63 63 63 12 200 150 
236 236 236 128 128 125 
