P3
10 10
255
254 0 0 254 63 0 254 128 0 254 191 0 223 254 0 223 254 0 96 254 0 96 254 0 0 254 32 0 254 32 
254 0 63 254 63 63 254 128 63 254 191 63 223 254 63 223 254 63 96 254 63 96 254 63 0 254 95 0 254 95 
254 0 128 254 63 128 254 128 128 254 191 128 223 254 128 223 254 128 96 254 128 96 254 128 0 254 159 0 254 159 
254 0 191 254 63 191 254 128 191 254 191 191 223 254 191 223 254 191 96 254 191 96 254 191 0 254 222 0 254 222 
223 0 254 223 63 254 223 128 254 223 191 254 190 254 254 190 254 254 63 254 254 63 254 254 0 191 254 0 191 254 
223 0 254 223 63 254 223 128 254 223 191 254 190 254 254 190 254 254 63 254 254 63 254 254 0 191 254 0 191 254 
96 0 254 96 63 254 96 128 254 96 191 254 63 254 254 63 254 254 0 191 254 0 191 254 0 64 254 0 64 254 
96 0 254 96 63 254 96 128 254 96 191 254 63 254 254 63 254 254 0 191 254 0 191 254 0 64 254 0 64 254 
0 0 223 0 63 223 0 127 223 0 190 223 0 254 191 0 254 191 0 160 160 0 160 160 0 30 158 0 30 158 
0 0 223 0 63 223 0 127 223 0 190 223 0 254 191 0 254 191 0 160 160 0 160 160 0 30 158 0 30 158 
