P3
2 2
255
78 78 78 120 120 120 
170 170 170 127 127 127 
