P3
10 10
255
250 0 32 250 63 32 250 128 32 250 191 32 226 254 32 226 254 32 99 254 32 99 254 32 0 254 159 0 254 159 
250 0 32 250 63 32 250 128 32 250 191 32 226 254 32 226 254 32 99 254 32 99 254 32 0 254 159 0 254 159 
250 0 159 250 63 159 250 128 159 250 191 159 226 254 159 226 254 159 99 254 159 99 254 159 0 254 159 0 254 159 
250 0 159 250 63 159 250 128 159 250 191 159 226 254 159 226 254 159 99 254 159 99 254 159 0 254 159 0 254 159 
226 0 254 226 63 254 226 128 254 226 191 254 171 254 254 171 254 254 75 254 254 75 254 254 0 191 222 0 191 222 
226 0 254 226 63 254 226 128 254 226 191 254 171 254 254 171 254 254 75 254 254 75 254 254 0 191 222 0 191 222 
99 0 254 99 63 254 99 128 254 99 191 254 75 254 254 75 254 254 -19 191 254 -19 191 254 0 64 222 0 64 222 
99 0 254 99 63 254 99 128 254 99 191 254 75 254 254 75 254 254 -19 191 254 -19 191 254 0 64 222 0 64 222 
0 0 211 0 63 211 0 127 211 0 190 211 0 254 187 0 254 187 0 160 187 0 160 187 0 30 129 0 30 129 
0 0 211 0 63 211 0 127 211 0 190 211 0 254 187 0 254 187 0 160 187 0 160 187 0 30 129 0 30 129 
