P3
2 2
255
63 63 63 156 156 156 
236 236 236 127 127 127 
