P3
2 2
255
123 123 123 12 200 150 
255 255 255 128 128 125 
