P3
10 10
255
0 0 0 0 0 0 0 0 0 0 0 0 0 0 0 0 0 0 0 0 0 0 0 0 0 0 0 0 0 0 
0 0 0 86 86 86 130 130 130 174 174 174 203 203 203 196 196 196 160 160 160 117 117 117 73 73 73 0 0 0 
0 0 0 106 106 106 149 149 149 193 193 193 219 219 219 211 211 211 178 178 178 135 135 135 92 92 92 0 0 0 
0 0 0 127 127 127 172 172 172 211 211 211 234 234 234 229 229 229 205 205 205 170 170 170 127 127 127 0 0 0 
0 0 0 150 150 150 193 193 193 225 225 225 241 241 241 240 240 240 229 229 229 205 205 205 170 170 170 0 0 0 
0 0 0 164 164 164 205 205 205 235 235 235 244 244 244 244 244 244 239 239 239 224 224 224 200 200 200 0 0 0 
0 0 0 162 162 162 203 203 203 234 234 234 244 244 244 244 244 244 237 237 237 224 224 224 209 209 209 0 0 0 
0 0 0 151 151 151 194 194 194 227 227 227 242 242 242 242 242 242 232 232 232 215 215 215 203 203 203 0 0 0 
0 0 0 140 140 140 183 183 183 220 220 220 239 239 239 238 238 238 225 225 225 205 205 205 191 191 191 0 0 0 
0 0 0 0 0 0 0 0 0 0 0 0 0 0 0 0 0 0 0 0 0 0 0 0 0 0 0 0 0 0 
