P3
2 2
255
95 85 66 186 166 129 
255 255 205 172 153 119 
