P3
2 2
255
123 123 123 200 200 200 
255 255 255 128 128 128 
