P3
10 10
255
255 20 20 255 84 20 255 148 20 255 212 20 255 255 20 212 255 20 148 255 20 84 255 20 20 255 20 20 255 84 
255 20 84 255 84 84 255 148 84 255 212 84 255 255 84 212 255 84 148 255 84 84 255 84 20 255 84 20 255 148 
255 20 148 255 84 148 255 148 148 255 212 148 255 255 148 212 255 148 148 255 148 84 255 148 20 255 148 20 255 212 
255 20 212 255 84 212 255 148 212 255 212 212 255 255 212 212 255 212 148 255 212 84 255 212 20 255 212 20 255 255 
255 20 255 255 84 255 255 148 255 255 212 255 255 255 255 212 255 255 148 255 255 84 255 255 20 255 255 20 212 255 
212 20 255 212 84 255 212 148 255 212 212 255 212 255 255 148 255 255 84 255 255 20 255 255 20 212 255 20 148 255 
148 20 255 148 84 255 148 148 255 148 212 255 148 255 255 84 255 255 20 255 255 20 212 255 20 148 255 20 84 255 
84 20 255 84 84 255 84 148 255 84 212 255 84 255 255 20 255 255 20 212 255 20 148 255 20 84 255 20 20 255 
20 20 255 20 84 255 20 148 255 20 212 255 20 255 255 20 255 212 20 212 212 20 148 212 20 84 212 20 20 212 
20 20 212 20 84 212 20 148 212 20 212 212 20 255 212 20 255 148 20 212 148 20 148 148 20 84 148 20 20 148 
