P3
2 2
255
143 65 87 32 220 170 
255 255 20 148 148 145 
