P3
10 10
255
85 85 85 106 106 106 127 127 127 149 149 149 170 170 170 149 149 149 127 127 127 106 106 106 85 85 85 106 106 106 
106 106 106 127 127 127 149 149 149 170 170 170 191 191 191 170 170 170 149 149 149 127 127 127 106 106 106 127 127 127 
127 127 127 149 149 149 170 170 170 191 191 191 212 212 212 191 191 191 170 170 170 149 149 149 127 127 127 149 149 149 
149 149 149 170 170 170 191 191 191 213 213 213 234 234 234 213 213 213 191 191 191 170 170 170 149 149 149 170 170 170 
170 170 170 191 191 191 212 212 212 234 234 234 255 255 255 234 234 234 212 212 212 191 191 191 170 170 170 149 149 149 
149 149 149 170 170 170 191 191 191 213 213 213 234 234 234 212 212 212 191 191 191 170 170 170 149 149 149 127 127 127 
127 127 127 149 149 149 170 170 170 191 191 191 212 212 212 191 191 191 170 170 170 149 149 149 127 127 127 106 106 106 
106 106 106 127 127 127 149 149 149 170 170 170 191 191 191 170 170 170 149 149 149 127 127 127 106 106 106 85 85 85 
85 85 85 106 106 106 127 127 127 149 149 149 170 170 170 149 149 149 128 128 128 106 106 106 85 85 85 64 64 64 
64 64 64 85 85 85 106 106 106 128 128 128 149 149 149 127 127 127 106 106 106 85 85 85 64 64 64 42 42 42 
