P3
10 10
255
230 -25 -25 230 39 -25 230 103 -25 230 167 -25 230 230 -25 167 230 -25 103 230 -25 39 230 -25 -25 230 -25 -25 230 39 
230 -25 39 230 39 39 230 103 39 230 167 39 230 230 39 167 230 39 103 230 39 39 230 39 -25 230 39 -25 230 103 
230 -25 103 230 39 103 230 103 103 230 167 103 230 230 103 167 230 103 103 230 103 39 230 103 -25 230 103 -25 230 167 
230 -25 167 230 39 167 230 103 167 230 167 167 230 230 167 167 230 167 103 230 167 39 230 167 -25 230 167 -25 230 230 
230 -25 230 230 39 230 230 103 230 230 167 230 230 230 230 167 230 230 103 230 230 39 230 230 -25 230 230 -25 167 230 
167 -25 230 167 39 230 167 103 230 167 167 230 167 230 230 103 230 230 39 230 230 -25 230 230 -25 167 230 -25 103 230 
103 -25 230 103 39 230 103 103 230 103 167 230 103 230 230 39 230 230 -25 230 230 -25 167 230 -25 103 230 -25 39 230 
39 -25 230 39 39 230 39 103 230 39 167 230 39 230 230 -25 230 230 -25 167 230 -25 103 230 -25 39 230 -25 -25 230 
-25 -25 230 -25 39 230 -25 103 230 -25 167 230 -25 230 230 -25 230 167 -25 167 167 -25 103 167 -25 39 167 -25 -25 167 
-25 -25 167 -25 39 167 -25 103 167 -25 167 167 -25 230 167 -25 230 103 -25 167 103 -25 103 103 -25 39 103 -25 -25 103 
