P3
10 10
255
100 88 69 149 132 103 198 176 137 247 220 171 255 255 205 255 241 188 246 219 170 221 197 153 196 174 136 208 185 144 
112 99 77 161 143 111 210 187 146 255 231 180 255 255 213 255 252 196 255 230 179 233 208 161 208 185 144 220 196 152 
124 110 86 173 154 120 222 198 154 255 242 188 255 255 222 255 255 205 255 241 187 245 218 170 220 196 152 232 207 161 
136 121 94 185 165 128 234 209 162 255 252 197 255 255 230 255 255 213 255 251 196 255 229 178 232 207 161 244 217 169 
148 131 102 197 175 136 246 219 171 255 255 205 255 255 238 255 255 221 255 255 204 255 240 186 244 217 169 195 174 135 
123 109 85 172 153 119 222 197 153 255 241 188 255 255 221 255 255 204 255 240 186 244 217 169 195 174 135 146 130 101 
98 87 68 147 131 102 196 175 136 246 219 170 255 255 204 255 240 186 244 217 169 195 174 135 146 130 101 97 86 67 
73 65 50 122 109 84 171 152 119 220 196 153 255 240 186 244 217 169 195 174 135 146 130 101 97 86 67 48 42 33 
48 42 33 97 86 67 146 130 101 195 174 135 244 217 169 232 207 161 183 163 127 134 120 93 85 76 59 36 32 25 
36 32 25 85 76 59 134 120 93 183 163 127 232 207 161 220 196 152 171 153 119 122 109 85 73 65 50 24 21 16 
