P3
2 2
255
255 255 0 128 128 125 
123 45 67 12 200 150 
