P3
2 2
255
133 37 64 12 200 150 
255 247 0 128 128 125 
