P3
2 2
255
12 200 150 123 45 67 
128 128 125 255 255 0 
