P3
2 2
255
255 255 255 12 200 150 
255 255 0 128 128 125 
