P3
10 10
255
250 32 74 250 32 74 250 159 74 250 159 74 226 246 74 226 246 74 99 246 74 99 246 74 0 222 117 0 222 117 
250 32 74 250 32 74 250 159 74 250 159 74 226 246 74 226 246 74 99 246 74 99 246 74 0 222 117 0 222 117 
250 32 74 250 32 74 250 159 74 250 159 74 226 246 74 226 246 74 99 246 74 99 246 74 0 222 117 0 222 117 
250 32 74 250 32 74 250 159 74 250 159 74 226 246 74 226 246 74 99 246 74 99 246 74 0 222 117 0 222 117 
226 32 232 226 32 232 226 159 232 226 159 232 75 246 232 75 246 232 75 246 232 75 246 232 0 159 244 0 159 244 
226 32 232 226 32 232 226 159 232 226 159 232 75 246 232 75 246 232 75 246 232 75 246 232 0 159 244 0 159 244 
99 32 232 99 32 232 99 159 232 99 159 232 75 246 232 75 246 232 75 246 232 75 246 232 0 159 244 0 159 244 
99 32 232 99 32 232 99 159 232 99 159 232 75 246 232 75 246 232 75 246 232 75 246 232 0 159 244 0 159 244 
0 123 233 0 123 233 0 123 233 0 123 233 0 179 209 0 179 209 0 179 209 0 179 209 0 1 -11 0 1 -11 
0 123 233 0 123 233 0 123 233 0 123 233 0 179 209 0 179 209 0 179 209 0 179 209 0 1 -11 0 1 -11 
