P3
10 10
255
250 32 95 250 32 95 250 159 95 250 159 95 226 246 95 226 246 95 99 246 95 99 246 95 0 222 95 0 222 95 
250 32 95 250 32 95 250 159 95 250 159 95 226 246 95 226 246 95 99 246 95 99 246 95 0 222 95 0 222 95 
250 32 95 250 32 95 250 159 95 250 159 95 226 246 95 226 246 95 99 246 95 99 246 95 0 222 95 0 222 95 
250 32 95 250 32 95 250 159 95 250 159 95 226 246 95 226 246 95 99 246 95 99 246 95 0 222 95 0 222 95 
226 32 254 226 32 254 226 159 254 226 159 254 75 246 254 75 246 254 75 246 254 75 246 254 0 159 222 0 159 222 
226 32 254 226 32 254 226 159 254 226 159 254 75 246 254 75 246 254 75 246 254 75 246 254 0 159 222 0 159 222 
99 32 254 99 32 254 99 159 254 99 159 254 75 246 254 75 246 254 75 246 254 75 246 254 0 159 222 0 159 222 
99 32 254 99 32 254 99 159 254 99 159 254 75 246 254 75 246 254 75 246 254 75 246 254 0 159 222 0 159 222 
0 123 211 0 123 211 0 123 211 0 123 211 0 179 187 0 179 187 0 179 187 0 179 187 0 1 9 0 1 9 
0 123 211 0 123 211 0 123 211 0 123 211 0 179 187 0 179 187 0 179 187 0 179 187 0 1 9 0 1 9 
