P3
5 5
255
123 45 67   12 200 150   255 0 0   0 255 255   150 75 0
255 255 0   128 128 128  0 255 0   255 0 255   64 64 255
0 0 255     100 200 50   180 100 150  75 50 255   200 100 0
255 100 100  0 255 100   0 100 255   200 200 0    150 0 255
50 50 50    255 255 255  128 0 128   0 255 0     255 128 64