P3
10 10
255
0 0 0 64 64 64 128 128 128 192 192 192 255 255 255 255 255 255 255 255 255 255 255 255 255 255 255 255 255 255 
0 0 0 64 64 64 128 128 128 192 192 192 255 255 255 255 255 255 255 255 255 255 255 255 255 255 255 255 255 255 
0 0 0 64 64 64 128 128 128 192 192 192 255 255 255 255 255 255 255 255 255 255 255 255 255 255 255 255 255 255 
0 0 0 64 64 64 128 128 128 192 192 192 255 255 255 255 255 255 255 255 255 255 255 255 255 255 255 255 255 255 
0 0 0 64 64 64 128 128 128 192 192 192 255 255 255 255 255 255 255 255 255 255 255 255 255 255 255 192 192 192 
0 0 0 64 64 64 128 128 128 192 192 192 255 255 255 255 255 255 255 255 255 255 255 255 192 192 192 128 128 128 
0 0 0 64 64 64 128 128 128 192 192 192 255 255 255 255 255 255 255 255 255 192 192 192 128 128 128 64 64 64 
0 0 0 64 64 64 128 128 128 192 192 192 255 255 255 255 255 255 192 192 192 128 128 128 64 64 64 0 0 0 
0 0 0 64 64 64 128 128 128 192 192 192 255 255 255 255 255 255 192 192 192 128 128 128 64 64 64 0 0 0 
0 0 0 64 64 64 128 128 128 192 192 192 255 255 255 255 255 255 192 192 192 128 128 128 64 64 64 0 0 0 
