P3
10 10
255
255 255 255 255 255 255 255 255 255 255 255 255 255 255 255 192 192 192 128 128 128 64 64 64 0 0 0 0 0 0 
255 255 255 255 255 255 255 255 255 255 255 255 255 255 255 192 192 192 128 128 128 64 64 64 0 0 0 0 0 0 
255 255 255 255 255 255 255 255 255 255 255 255 255 255 255 192 192 192 128 128 128 64 64 64 0 0 0 0 0 0 
255 255 255 255 255 255 255 255 255 255 255 255 255 255 255 192 192 192 128 128 128 64 64 64 0 0 0 0 0 0 
255 255 255 255 255 255 255 255 255 255 255 255 255 255 255 192 192 192 128 128 128 64 64 64 0 0 0 0 0 0 
192 192 192 192 192 192 192 192 192 192 192 192 192 192 192 128 128 128 64 64 64 0 0 0 0 0 0 0 0 0 
128 128 128 128 128 128 128 128 128 128 128 128 128 128 128 64 64 64 0 0 0 0 0 0 0 0 0 0 0 0 
64 64 64 64 64 64 64 64 64 64 64 64 64 64 64 0 0 0 0 0 0 0 0 0 0 0 0 0 0 0 
0 0 0 0 0 0 0 0 0 0 0 0 0 0 0 0 0 0 0 0 0 0 0 0 0 0 0 0 0 0 
0 0 0 0 0 0 0 0 0 0 0 0 0 0 0 0 0 0 0 0 0 0 0 0 0 0 0 0 0 0 
